<svg width="80" height="53" viewBox="0 0 80 53" fill="none" xmlns="http://www.w3.org/2000/svg">
<g clip-path="url(#clip0_4_1023)">
<path d="M50.5549 9.23389H29.4513V43.7601H50.5549V9.23389Z" fill="#FF5F00"/>
<path d="M31.6249 26.5001C31.6223 23.1755 32.3747 19.8939 33.8251 16.9036C35.2756 13.9133 37.3861 11.2927 39.9969 9.24004C36.7633 6.69446 32.8799 5.11152 28.7906 4.67213C24.7013 4.23274 20.571 4.95462 16.8719 6.75527C13.1729 8.55593 10.0541 11.3627 7.8722 14.8548C5.69028 18.3469 4.5332 22.3835 4.5332 26.5032C4.5332 30.6228 5.69028 34.6594 7.8722 38.1515C10.0541 41.6436 13.1729 44.4504 16.8719 46.251C20.571 48.0517 24.7013 48.7736 28.7906 48.3342C32.8799 47.8948 36.7633 46.3119 39.9969 43.7663C37.3853 41.713 35.2743 39.0914 33.8238 36.0999C32.3733 33.1085 31.6213 29.8257 31.6249 26.5001Z" fill="#EB001B"/>
<path d="M73.3693 40.1068V39.3993H73.6738V39.2529H72.9492V39.3993H73.2354V40.1068H73.3693ZM74.7758 40.1068V39.2529H74.5566L74.3009 39.8628L74.0452 39.2529H73.826V40.1068H73.9843V39.4603L74.2218 40.0153H74.3862L74.6236 39.4603V40.1068H74.7758Z" fill="#F79E1B"/>
<path d="M75.4639 26.5C75.4638 30.6199 74.3064 34.6567 72.1241 38.149C69.9418 41.6412 66.8226 44.4479 63.1231 46.2483C59.4235 48.0487 55.2929 48.7702 51.2033 48.3301C47.1138 47.8901 43.2304 46.3064 39.9969 43.76C42.6068 41.7056 44.7167 39.0842 46.1675 36.0937C47.6183 33.1033 48.3722 29.8218 48.3722 26.4969C48.3722 23.172 47.6183 19.8906 46.1675 16.9001C44.7167 13.9096 42.6068 11.2883 39.9969 9.23379C43.2304 6.68742 47.1138 5.10371 51.2033 4.66368C55.2929 4.22366 59.4235 4.94508 63.1231 6.74548C66.8226 8.54587 69.9418 11.3526 72.1241 14.8448C74.3064 18.3371 75.4638 22.3739 75.4639 26.4939V26.5Z" fill="#F79E1B"/>
</g>
<defs>
<clipPath id="clip0_4_1023">
<rect width="80" height="53" fill="white"/>
</clipPath>
</defs>
</svg>
